<?xml version="1.0" encoding="UTF-8"?>
<svg width="752pt" height="752pt" version="1.1" viewBox="0 0 752 752" xmlns="http://www.w3.org/2000/svg">
 <g fill-rule="evenodd">
  <path d="m234.98 532.28c-2.5195 0-4.9375-1.0039-6.7148-2.793-1.7773-1.7852-2.7695-4.207-2.7578-6.7266l0.23438-45.379c0.027343-5.2109 4.2617-9.4219 9.4727-9.4219h249.16v-70.941l-28.332 0.046875v-0.003906c-3.7852 0.003906-7.2109-2.2461-8.7109-5.7188-1.4961-3.4766-0.78125-7.5117 1.8203-10.262l61.52-64.969c1.8242-1.9297 4.3789-3.0039 7.0352-2.957 2.6602 0.042968 5.1758 1.2031 6.9375 3.1953l57.363 64.875v-0.003906c2.4648 2.7891 3.0664 6.7656 1.5391 10.16-1.5273 3.3945-4.9023 5.5781-8.625 5.5859l-27.648 0.046875v125.82c0 5.2305-4.2422 9.4688-9.4727 9.4727h-302.82z"/>
  <path d="m234.63 438.85c-2.7539 0.035157-5.3867-1.1289-7.2148-3.1953l-57.41-64.871c-2.4648-2.7891-3.0703-6.7656-1.543-10.16 1.5273-3.3945 4.9023-5.582 8.625-5.5859l27.648-0.046874v-125.82c0-5.2305 4.2422-9.4727 9.4727-9.4727h302.82c2.5195 0 4.9336 1.0039 6.7109 2.7891 1.7773 1.7852 2.7734 4.2031 2.7617 6.7227l-0.1875 45.375c-0.023438 5.2148-4.2578 9.4336-9.4727 9.4336h-249.2v70.941l28.332-0.046875c3.7852-0.003907 7.207 2.2461 8.707 5.7227s0.78516 7.5078-1.8164 10.258l-61.469 64.969c-1.7578 1.8594-4.1953 2.9297-6.7578 2.9609z"/>
 </g>
</svg>
